<svg xmlns="http://www.w3.org/2000/svg" width="1024" height="1024" viewBox="0 0 1024 1024">
<g>
<path d="M 677.50 607.28 C668.68,609.28 665.48,609.33 517.00,609.59 C358.17,609.86 356.86,609.83 340.00,605.54 C330.58,603.14 317.75,596.40 311.48,590.57 L 306.04 585.50 L 306.96 488.50 C307.95,383.52 307.92,384.06 313.66,366.50 C326.43,327.43 357.94,303.60 402.86,299.05 C416.70,297.65 605.05,297.63 619.14,299.03 C670.45,304.13 705.55,332.72 714.54,376.73 C717.63,391.85 717.82,397.10 719.08,499.87 L 720.13 585.23 L 717.83 587.68 C710.58,595.40 693.71,603.60 677.50,607.28 ZM 494.22 583.46 C499.42,585.09 501.00,585.26 501.00,584.17 C501.00,581.11 489.68,557.41 482.99,546.49 C480.80,542.90 479.00,539.62 479.00,539.19 C479.00,538.77 477.67,536.87 476.04,534.96 C474.41,533.06 473.06,531.20 473.04,530.83 C473.00,530.16 464.22,515.75 460.96,511.00 C449.04,493.63 442.50,484.97 440.90,484.47 C439.84,484.13 439.21,483.47 439.50,483.00 C439.79,482.53 436.81,477.72 432.88,472.32 C428.94,466.92 423.64,459.61 421.11,456.08 C418.57,452.55 414.81,447.69 412.75,445.27 C410.69,442.85 409.00,440.45 409.00,439.92 C409.00,439.39 407.88,437.18 406.50,435.00 C403.62,430.44 403.46,429.73 405.42,430.18 C408.33,430.84 456.50,487.23 456.50,489.98 C456.50,490.35 458.08,492.74 460.00,495.28 C462.47,498.56 464.01,499.76 465.25,499.39 C466.65,498.97 467.00,499.48 467.00,501.88 C467.00,503.54 467.61,505.26 468.35,505.70 C472.06,507.90 495.05,544.56 501.70,558.89 C504.10,564.05 506.37,567.97 506.74,567.59 C508.12,566.21 512.96,544.10 514.62,531.64 C516.08,520.62 516.16,516.96 515.17,506.14 C513.53,488.23 510.41,476.71 503.39,462.73 C499.95,455.88 492.75,445.59 487.60,440.18 C479.79,431.95 464.24,421.82 452.04,417.02 C449.08,415.85 444.82,414.08 442.58,413.07 C440.34,412.07 434.45,409.82 429.50,408.07 C384.65,392.25 368.77,383.51 356.51,367.90 C348.49,357.71 347.88,361.37 355.04,376.69 C371.07,411.00 372.25,415.94 373.96,455.50 C375.12,482.45 376.16,490.88 379.54,500.80 C387.59,524.44 403.11,544.58 424.00,558.50 C439.36,568.73 450.39,573.15 473.86,578.47 C482.70,580.47 491.86,582.71 494.22,583.46 ZM 517.01 589.25 C516.99,595.13 518.66,591.51 520.92,580.75 C523.50,568.52 527.14,559.31 531.37,554.32 C535.51,549.42 541.96,546.32 561.11,539.99 C588.37,530.97 598.66,526.40 614.32,516.34 C627.08,508.13 642.51,490.73 649.92,476.16 C652.16,471.77 659.00,451.63 659.00,449.44 C659.00,448.78 660.29,444.03 661.88,438.87 C663.46,433.72 665.95,423.29 667.42,415.70 C670.12,401.71 675.43,383.99 679.06,376.88 C681.64,371.83 686.00,359.73 686.00,357.63 C686.00,355.32 684.09,355.52 662.50,360.07 C652.05,362.28 641.70,364.44 639.50,364.88 C624.60,367.87 597.79,377.26 582.00,385.01 C551.62,399.93 531.21,422.88 522.90,451.50 C519.79,462.19 519.50,487.02 522.37,496.50 C524.99,505.18 528.10,512.06 529.11,511.43 C529.60,511.13 531.50,507.65 533.35,503.69 C535.19,499.74 538.96,492.60 541.73,487.82 C544.91,482.32 547.00,477.38 547.43,474.32 C549.62,458.93 552.35,443.30 553.09,442.00 C554.29,439.89 554.23,447.54 552.95,460.01 C552.37,465.63 552.11,470.45 552.37,470.70 C552.63,470.96 555.69,467.66 559.17,463.38 C562.65,459.10 568.31,452.50 571.75,448.72 C575.19,444.93 578.25,440.64 578.56,439.17 C581.41,425.48 582.93,422.58 582.97,430.77 L 583.00 437.04 L 594.24 427.27 C600.42,421.90 607.10,415.81 609.08,413.75 C611.07,411.69 612.97,410.00 613.30,410.00 C613.64,410.00 616.80,407.86 620.35,405.25 C626.72,400.54 631.01,397.76 648.60,386.92 C653.60,383.83 658.21,380.99 658.85,380.60 C659.48,380.20 660.00,380.27 660.00,380.74 C660.00,381.21 655.27,385.36 649.49,389.96 C641.31,396.47 639.10,398.74 639.55,400.17 C639.87,401.17 639.70,402.00 639.17,402.00 C638.64,402.00 636.92,403.09 635.35,404.43 C626.56,411.93 620.10,417.00 619.35,417.00 C618.88,417.00 615.80,419.46 612.50,422.46 C608.45,426.14 607.07,427.92 608.26,427.95 C609.76,427.99 609.84,428.29 608.77,430.00 C608.08,431.10 606.88,432.00 606.11,432.00 C601.69,432.00 563.92,474.25 566.25,476.59 C566.48,476.82 569.14,476.16 572.16,475.12 C578.65,472.88 594.87,469.54 595.62,470.28 C595.90,470.57 594.42,471.35 592.32,472.03 C590.22,472.71 588.05,473.60 587.50,474.02 C586.95,474.43 583.09,475.70 578.92,476.84 C565.15,480.58 560.71,482.67 558.18,486.60 C554.23,492.72 543.83,513.16 544.39,513.72 C544.67,514.01 550.04,513.29 556.30,512.12 C574.47,508.74 576.49,509.45 560.40,513.56 C538.22,519.23 540.31,518.08 536.32,526.80 C527.92,545.20 517.04,580.37 517.01,589.25 ZM 509.86 432.33 C512.04,434.97 512.89,433.37 512.31,427.73 L 511.77 422.48 L 515.32 421.20 C520.92,419.18 533.49,410.54 536.21,406.86 C537.57,405.01 539.77,400.80 541.09,397.50 C543.13,392.42 543.50,389.81 543.49,380.50 C543.48,370.68 543.17,368.75 540.59,362.50 C539.01,358.65 533.56,349.20 528.48,341.50 C523.40,333.80 518.04,325.11 516.57,322.18 C515.10,319.26 513.41,317.03 512.81,317.23 C512.22,317.43 510.93,319.63 509.95,322.12 C507.81,327.57 498.02,343.95 493.58,349.50 C489.07,355.15 484.23,363.34 481.86,369.35 C480.75,372.17 479.31,374.81 478.67,375.20 C477.89,375.69 477.50,379.68 477.50,387.21 C477.50,396.85 477.83,399.22 479.78,403.45 C483.88,412.33 489.54,418.51 499.34,424.80 C504.38,428.03 509.11,431.42 509.86,432.33 ZM 423.97 684.52 C420.70,686.20 409.64,686.42 406.42,684.86 C404.57,683.96 401.00,679.17 401.00,677.60 C401.00,676.29 408.82,677.08 410.00,678.50 C413.58,682.81 423.00,678.05 423.00,671.93 C423.00,670.63 423.03,669.82 422.64,669.47 C421.99,668.88 420.14,669.62 414.94,671.61 C410.55,673.28 410.23,673.28 406.45,671.42 C398.77,667.67 395.72,656.60 399.86,647.50 C402.34,642.06 403.94,640.96 410.40,640.30 C414.67,639.86 416.54,640.12 418.57,641.46 C420.48,642.71 421.52,642.88 422.31,642.09 C422.91,641.49 425.11,641.00 427.20,641.00 L 431.00 641.00 L 431.00 659.10 C431.00,675.82 430.84,677.41 428.92,680.11 C427.78,681.72 425.55,683.70 423.97,684.52 ZM 507.00 658.00 L 507.00 674.00 L 499.00 674.00 L 499.00 629.00 L 508.77 629.00 L 518.46 643.51 C523.79,651.50 528.56,657.77 529.07,657.45 C529.58,657.14 530.00,650.61 530.00,642.94 L 530.00 629.00 L 538.04 629.00 L 537.77 651.25 L 537.50 673.50 L 529.49 674.09 L 518.99 658.09 C513.22,649.29 508.16,642.07 507.75,642.04 C507.34,642.02 507.00,649.20 507.00,658.00 ZM 362.20 668.50 C360.48,673.33 360.27,673.51 356.21,673.81 C353.89,673.98 352.00,673.68 352.00,673.15 C352.00,671.75 368.56,629.11 369.45,628.22 C369.75,627.91 372.06,628.08 374.58,628.58 C379.11,629.49 379.20,629.59 381.98,636.50 C393.46,665.11 396.04,672.13 395.41,673.15 C395.12,673.62 393.14,674.00 391.02,674.00 C387.25,674.00 387.12,673.88 385.47,668.75 C384.54,665.86 383.06,662.94 382.20,662.25 C381.29,661.53 377.79,661.00 374.00,661.00 C370.28,661.00 366.64,661.55 365.68,662.25 C364.74,662.94 363.18,665.75 362.20,668.50 ZM 569.73 672.35 C566.66,674.65 557.81,675.53 554.00,673.93 C547.44,671.17 543.91,665.25 543.87,656.93 C543.83,649.92 545.90,645.67 551.05,642.16 C554.07,640.10 555.35,639.86 561.34,640.28 C572.82,641.06 577.36,646.35 576.77,658.22 C576.42,665.37 574.83,668.54 569.73,672.35 ZM 485.95 671.65 C478.79,676.39 469.60,675.63 464.32,669.88 C461.25,666.54 460.00,662.71 460.00,656.68 C460.00,646.37 465.99,640.00 475.69,640.00 C486.61,640.00 493.54,646.65 493.40,657.00 C493.30,663.90 491.08,668.26 485.95,671.65 ZM 629.20 672.55 C626.01,673.90 619.51,674.60 616.28,673.93 C608.63,672.35 604.00,665.88 604.00,656.79 C604.00,646.22 609.93,640.00 619.99,640.00 C623.13,640.00 627.09,640.69 628.79,641.55 C632.91,643.60 636.07,648.92 636.31,654.21 L 636.50 658.50 L 624.75 658.78 C613.73,659.05 613.00,659.19 613.00,661.08 C613.00,663.82 617.38,668.00 620.26,668.00 C621.55,668.00 624.14,666.88 626.00,665.50 C629.44,662.96 636.00,662.02 636.00,664.07 C636.00,665.66 631.14,671.72 629.20,672.55 ZM 662.36 673.62 C655.19,676.62 645.55,673.90 642.52,668.04 C640.28,663.70 640.60,663.00 644.84,663.00 C647.92,663.00 648.89,663.47 649.78,665.41 C651.24,668.63 656.23,669.73 659.54,667.57 C664.43,664.36 661.68,661.19 652.06,658.97 C644.99,657.33 642.00,654.38 642.00,649.05 C642.00,641.96 646.35,639.42 657.19,640.21 C662.55,640.60 663.65,641.05 666.21,643.90 C669.61,647.71 669.42,649.37 665.56,649.83 C663.61,650.06 661.94,649.36 660.00,647.50 C656.87,644.50 652.42,644.36 650.64,647.19 C649.08,649.68 652.27,652.70 657.34,653.54 C662.19,654.35 664.64,655.47 667.75,658.30 C672.33,662.47 669.46,670.66 662.36,673.62 ZM 599.50 670.50 C599.50,673.30 599.23,673.52 595.37,673.80 C592.14,674.04 590.60,673.56 588.37,671.64 C585.58,669.25 585.49,668.87 585.16,658.09 C584.83,647.13 584.79,647.00 582.41,647.00 C580.41,647.00 580.00,646.50 580.00,644.07 C580.00,641.79 580.50,641.07 582.25,640.82 C584.17,640.55 584.54,639.80 584.80,635.75 L 585.11 631.00 L 594.17 631.00 L 593.95 634.75 C593.59,640.60 593.79,641.00 597.07,641.00 C599.82,641.00 600.10,641.28 599.82,643.75 C599.57,645.91 598.91,646.57 596.75,646.82 L 594.00 647.13 L 594.00 666.87 L 596.75 667.18 C599.07,667.45 599.50,667.97 599.50,670.50 ZM 447.00 662.30 L 446.50 673.50 L 439.00 674.12 L 439.00 641.00 L 443.00 641.00 C445.97,641.00 447.00,641.40 447.00,642.57 C447.00,643.88 447.45,643.79 449.63,642.07 C451.08,640.93 453.59,640.00 455.20,640.00 C457.96,640.00 458.10,640.20 457.81,643.74 C457.52,647.22 457.24,647.52 453.70,648.09 C451.61,648.43 449.36,649.24 448.70,649.90 C447.98,650.61 447.30,655.56 447.00,662.30 ZM 554.92 665.42 C561.78,672.72 571.00,664.14 568.05,653.20 C566.82,648.61 565.68,647.48 561.37,646.56 C558.88,646.03 557.65,646.40 555.37,648.36 C552.80,650.57 552.50,651.46 552.50,656.83 C552.50,661.81 552.91,663.28 554.92,665.42 ZM 471.16 665.47 C476.08,671.73 485.01,665.69 485.00,656.10 C484.99,652.40 481.63,647.38 478.66,646.63 C469.89,644.43 464.75,657.33 471.16,665.47 ZM 409.07 663.37 C413.40,668.87 421.39,665.52 422.67,657.66 C424.17,648.38 415.54,642.36 409.45,648.45 C406.19,651.72 405.99,659.45 409.07,663.37 ZM 368.00 654.19 C368.00,654.64 370.48,655.00 373.50,655.00 C378.11,655.00 379.00,654.71 379.00,653.21 C379.00,650.39 374.48,639.47 373.44,639.77 C372.60,640.02 368.00,652.21 368.00,654.19 ZM 613.71 653.37 C614.10,653.76 617.35,653.95 620.95,653.79 C626.14,653.56 627.55,653.15 627.80,651.81 C628.70,647.10 618.90,643.97 614.83,647.65 C612.97,649.34 612.43,652.09 613.71,653.37 ZM 513.02 362.48 C512.51,363.09 511.94,366.71 511.75,370.54 C511.47,376.02 511.35,375.27 511.21,367.00 C511.02,356.04 512.21,350.75 513.32,357.61 C513.66,359.68 513.52,361.87 513.02,362.48 Z" fill="rgba(2,4,3,1)"/>
<path d="M 387.50 733.85 C348.97,728.94 315.74,703.77 301.42,668.65 C296.97,657.74 294.20,646.80 293.00,635.50 C292.83,633.86 292.69,631.54 292.58,628.75 C292.83,630.62 293.24,630.74 293.89,630.53 C295.29,630.09 295.93,630.83 296.88,633.99 C299.69,643.37 312.10,667.01 318.19,674.57 C324.76,682.74 334.66,691.51 341.87,695.55 C349.07,699.58 363.12,703.92 372.08,704.88 C376.76,705.38 440.92,705.69 516.50,705.58 C650.46,705.39 652.64,705.35 661.62,703.30 C672.15,700.89 678.18,698.41 685.81,693.34 C693.45,688.26 704.41,677.68 709.70,670.27 C714.50,663.55 725.93,641.92 727.92,635.80 C728.71,633.38 729.59,632.29 730.48,632.63 C730.74,632.73 730.96,632.53 731.12,631.81 C730.88,638.57 730.41,642.12 729.58,646.00 C724.49,669.82 714.05,689.02 697.66,704.70 C680.71,720.92 662.18,729.81 637.77,733.44 C628.65,734.79 611.69,734.98 510.87,734.87 C446.87,734.80 391.35,734.35 387.50,733.85 ZM 509.86 432.33 C509.11,431.42 504.38,428.03 499.34,424.80 C489.54,418.51 483.88,412.33 479.78,403.45 C477.83,399.22 477.50,396.85 477.50,387.21 C477.50,379.68 477.89,375.69 478.67,375.20 C479.29,374.82 480.64,372.37 481.73,369.68 C473.69,390.66 479.25,410.60 498.00,422.73 C501.02,424.69 505.07,427.35 507.00,428.65 C508.92,429.95 510.64,430.57 510.83,430.02 C511.01,429.47 510.67,425.90 510.08,422.07 C509.49,418.25 509.00,407.33 508.99,397.81 C508.98,376.39 510.98,336.83 512.14,335.55 C512.80,334.82 513.09,341.01 513.06,356.19 C512.03,351.64 511.04,356.92 511.21,367.00 C511.35,375.27 511.47,376.02 511.75,370.54 C511.94,366.71 512.51,363.09 513.02,362.48 C513.02,362.48 513.02,362.47 513.03,362.47 C512.99,367.65 512.93,373.64 512.83,380.50 C512.53,403.12 512.75,420.09 513.36,420.70 C514.47,421.80 530.04,412.98 534.00,409.00 C535.25,407.75 536.36,406.47 537.33,405.13 C536.93,405.81 536.54,406.41 536.21,406.86 C533.49,410.54 520.92,419.18 515.32,421.20 L 511.77 422.48 L 512.31 427.73 C512.89,433.37 512.04,434.97 509.86,432.33 ZM 585.82 451.01 C594.87,441.05 604.06,432.00 606.11,432.00 C606.88,432.00 608.08,431.10 608.77,430.00 C609.84,428.29 609.76,427.99 608.26,427.95 C607.07,427.92 608.45,426.14 612.50,422.46 C615.80,419.46 618.88,417.00 619.35,417.00 C620.10,417.00 626.56,411.93 635.35,404.43 C636.92,403.09 638.64,402.00 639.17,402.00 C639.70,402.00 639.87,401.17 639.55,400.17 C639.10,398.74 641.31,396.47 649.49,389.96 C655.27,385.36 660.00,381.21 660.00,380.74 C660.00,380.27 659.48,380.20 658.85,380.60 C658.21,380.99 653.60,383.83 648.60,386.92 C631.01,397.76 626.72,400.54 620.35,405.25 C616.80,407.86 613.64,410.00 613.30,410.00 C612.97,410.00 611.07,411.69 609.08,413.75 C607.10,415.81 600.42,421.90 594.24,427.27 L 585.68 434.71 L 591.66 429.00 C596.56,424.33 602.91,418.36 605.78,415.74 C608.65,413.12 611.00,410.17 611.00,409.18 C611.00,406.37 616.72,398.02 622.67,392.13 C628.37,386.51 630.75,385.47 626.35,390.54 C617.97,400.19 612.81,408.00 614.84,408.00 C615.72,408.00 626.55,400.85 635.00,394.68 C642.29,389.36 671.09,371.76 671.63,372.29 C672.06,372.73 663.94,379.69 650.98,390.00 C648.56,391.92 645.21,394.72 643.54,396.21 L 640.50 398.92 L 646.00 398.39 C652.48,397.78 651.31,398.97 642.44,402.02 C639.41,403.06 635.48,404.92 633.71,406.14 C628.88,409.49 611.00,425.00 611.00,425.85 C611.00,426.25 615.84,425.35 621.75,423.84 C627.66,422.33 634.30,421.08 636.50,421.07 L 640.50 421.05 L 637.50 422.42 C635.85,423.18 630.45,424.78 625.50,425.97 C620.55,427.16 614.53,429.01 612.12,430.07 C609.72,431.13 607.06,432.00 606.22,432.00 C604.13,432.00 594.90,441.05 585.82,451.01 ZM 517.01 589.25 C517.04,580.37 527.92,545.20 536.32,526.80 C540.31,518.08 538.22,519.23 560.40,513.56 C575.26,509.76 574.67,508.86 560.18,511.42 C562.68,510.89 564.71,510.38 565.50,510.03 C568.51,508.68 581.31,507.14 582.81,507.94 C584.42,508.81 581.66,509.64 559.45,515.01 C550.07,517.28 541.91,519.44 541.31,519.82 C539.71,520.83 534.41,532.90 529.50,546.75 C527.11,553.49 525.38,559.00 525.67,559.00 C525.96,559.00 528.12,556.86 530.47,554.25 C535.19,549.01 543.42,544.46 554.50,540.98 C558.35,539.77 566.63,537.03 572.91,534.89 C579.18,532.75 584.93,531.00 585.68,531.00 C585.96,531.00 586.41,530.90 587.01,530.70 C580.13,533.51 571.96,536.40 561.11,539.99 C541.96,546.32 535.51,549.42 531.37,554.32 C527.14,559.31 523.50,568.52 520.92,580.75 C518.66,591.51 516.99,595.13 517.01,589.25 ZM 315.50 593.81 C313.77,592.59 312.19,591.34 310.82,590.10 L 304.69 584.55 L 305.38 536.02 C306.92,428.28 307.85,393.26 309.45,383.68 C307.82,396.73 307.60,420.43 306.96,488.50 L 306.04 585.50 L 311.48 590.57 C312.62,591.63 313.98,592.72 315.50,593.81 ZM 455.03 487.49 L 463.50 498.07 L 464.12 484.78 C464.47,477.48 465.09,469.60 465.50,467.27 C466.85,459.71 467.90,463.79 467.31,474.28 C466.99,479.91 467.06,488.93 467.46,494.33 L 468.20 504.13 L 472.59 510.67 C470.60,507.95 469.09,506.14 468.35,505.70 C467.61,505.26 467.00,503.54 467.00,501.88 C467.00,499.48 466.65,498.97 465.25,499.39 C464.01,499.76 462.47,498.56 460.00,495.28 C458.08,492.74 456.50,490.35 456.50,489.98 C456.50,489.70 455.98,488.82 455.03,487.49 ZM 478.34 537.95 C477.83,537.32 477.06,536.55 476.21,535.83 C473.84,533.83 470.78,533.13 455.67,531.08 C445.91,529.76 437.64,528.23 437.30,527.68 C436.55,526.46 456.72,527.53 464.02,529.10 C471.68,530.74 472.44,530.27 469.89,525.50 C468.28,522.47 463.44,514.85 458.94,508.06 C459.59,509.01 460.27,509.99 460.96,511.00 C464.22,515.75 473.00,530.16 473.04,530.83 C473.06,531.20 474.41,533.06 476.04,534.96 C476.97,536.05 477.80,537.13 478.34,537.95 ZM 562.52 482.60 C565.66,480.77 570.58,479.11 578.92,476.84 C583.09,475.70 586.95,474.43 587.50,474.02 C588.05,473.60 590.22,472.71 592.32,472.03 C594.42,471.35 595.90,470.57 595.62,470.28 C595.28,469.94 591.66,470.46 587.23,471.34 C589.41,470.85 591.25,470.32 591.87,469.98 C594.27,468.67 619.05,463.72 619.74,464.41 C620.07,464.73 620.15,465.16 619.92,465.36 C619.69,465.56 608.70,468.67 595.50,472.28 C575.22,477.81 566.77,480.28 562.52,482.60 ZM 449.55 494.77 C443.07,486.38 441.56,485.62 432.75,483.33 C427.78,482.04 421.31,480.70 418.36,480.35 C415.41,480.01 413.00,479.28 413.00,478.75 C413.00,477.28 429.40,479.22 437.31,481.62 C438.94,482.12 438.99,481.94 437.81,479.90 C436.67,477.92 432.64,472.12 424.50,460.79 C427.10,464.37 430.28,468.76 432.88,472.32 C436.81,477.72 439.79,482.53 439.50,483.00 C439.21,483.47 439.84,484.13 440.90,484.47 C441.88,484.78 444.73,488.17 449.55,494.77 ZM 582.99 435.27 L 582.97 430.77 C582.93,422.98 581.55,425.22 578.97,437.22 C578.99,436.94 579.00,436.65 579.00,436.36 C579.00,434.60 579.90,429.18 581.00,424.33 C582.10,419.47 583.52,413.14 584.16,410.25 C584.80,407.36 585.70,405.00 586.16,405.00 C587.35,405.00 587.21,407.73 585.60,416.16 C584.83,420.20 583.88,426.65 583.48,430.50 L 582.99 435.27 ZM 552.33 470.60 C552.15,469.85 552.41,465.29 552.95,460.01 C554.23,447.54 554.29,439.89 553.09,442.00 C552.35,443.30 549.62,458.93 547.43,474.32 C547.22,475.86 546.58,477.88 545.59,480.20 C547.54,475.19 548.25,469.60 549.52,456.00 C550.41,446.39 552.95,434.89 554.69,432.55 C556.11,430.64 556.18,430.83 555.62,435.32 C553.91,449.05 552.05,469.07 552.33,470.60 ZM 410.37 434.81 C416.13,440.54 425.42,451.08 436.62,464.67 C427.10,453.40 416.48,441.25 410.37,434.81 ZM 484.55 528.74 C492.37,540.96 497.87,550.62 501.70,558.89 C498.48,551.93 491.40,539.72 484.55,528.74 ZM 634.10 498.67 C627.73,505.85 620.69,512.24 614.32,516.34 C613.80,516.67 613.28,517.00 612.77,517.32 C620.07,512.58 627.52,506.00 634.10,498.67 ZM 731.39 539.35 C731.28,555.85 731.23,567.44 731.27,568.50 C731.31,569.66 731.35,578.08 731.37,589.31 C731.30,582.46 731.25,577.75 731.23,573.05 C731.20,565.17 731.25,557.30 731.39,539.35 ZM 543.49 380.50 C543.50,388.11 543.25,391.25 542.05,394.91 C543.06,390.90 543.49,386.22 543.49,380.50 ZM 610.58 518.69 C605.20,522.02 600.27,524.74 594.76,527.32 C599.67,524.92 605.65,521.69 610.58,518.69 ZM 292.25 611.64 C292.20,602.33 292.31,592.20 292.55,584.22 C292.43,588.84 292.35,594.54 292.31,601.30 C292.28,605.25 292.26,608.67 292.25,611.64 ZM 570.78 449.80 C567.32,453.66 562.34,459.48 559.17,463.38 C555.69,467.66 552.63,470.96 552.37,470.70 C552.37,470.70 552.36,470.70 552.36,470.70 C552.66,470.91 555.71,467.62 559.17,463.34 C562.65,459.04 567.79,453.04 570.58,450.01 C570.65,449.94 570.71,449.87 570.78,449.80 ZM 584.52 471.90 C579.96,472.88 575.08,474.11 572.16,475.12 C569.14,476.16 566.48,476.82 566.25,476.59 C566.48,476.82 569.25,476.12 572.40,475.04 C575.55,473.95 580.85,472.57 584.18,471.97 C584.29,471.95 584.41,471.93 584.52,471.90 ZM 342.15 323.09 C357.77,309.79 378.27,301.54 402.86,299.05 C378.34,301.54 357.81,309.77 342.15,323.09 ZM 404.39 431.37 C404.14,430.90 404.00,430.56 404.00,430.45 C404.00,430.02 404.24,429.90 404.70,430.06 C404.06,430.04 403.93,430.38 404.39,431.37 ZM 340.00 605.54 C335.69,604.44 330.76,602.48 326.01,600.09 C330.76,602.47 335.73,604.45 340.00,605.54 ZM 419.65 454.08 C417.19,450.78 414.38,447.18 412.75,445.27 C414.44,447.25 417.28,450.89 419.65,454.08 ZM 544.48 513.76 C544.43,513.75 544.40,513.73 544.39,513.72 C544.38,513.72 544.38,513.72 544.38,513.71 C544.40,513.73 544.43,513.75 544.48,513.76 Z" fill="rgba(109,126,58,1)"/>
<path d="M 611.00 425.83 C611.16,425.22 616.90,420.04 622.72,415.06 C628.08,410.64 633.82,406.20 636.52,404.54 C637.51,404.04 638.61,403.54 639.71,403.07 C642.35,402.06 646.02,400.87 649.06,400.09 C657.81,397.84 656.37,396.05 647.28,397.87 C644.19,398.49 641.49,398.83 641.28,398.61 C641.18,398.51 641.55,398.05 642.23,397.38 L 643.54 396.21 C644.17,395.65 645.03,394.91 645.99,394.10 C648.54,392.04 651.40,389.72 652.47,388.85 C653.16,388.28 653.83,387.74 654.47,387.21 C659.89,382.87 664.25,379.26 667.22,376.67 C670.84,373.59 671.86,372.52 671.63,372.29 C671.09,371.76 642.29,389.36 635.00,394.68 C626.55,400.85 615.72,408.00 614.84,408.00 C612.81,408.00 617.97,400.19 626.35,390.54 C628.31,388.29 628.92,387.25 628.51,387.27 C628.51,387.21 628.49,387.16 628.47,387.13 C628.04,386.71 625.60,388.97 622.75,392.06 C622.73,392.08 622.70,392.11 622.67,392.13 C617.03,397.71 611.60,405.51 611.05,408.70 C610.42,409.95 609.89,411.01 609.59,411.57 C609.24,412.23 607.83,413.74 605.91,415.62 C605.87,415.66 605.82,415.70 605.78,415.74 C604.48,416.92 602.47,418.80 600.20,420.93 C595.69,424.95 591.02,428.80 589.75,429.28 C585.06,431.05 583.96,427.01 585.95,414.30 C586.22,412.83 586.43,411.57 586.59,410.49 C587.37,405.99 587.97,401.56 587.93,400.50 C587.83,397.30 585.37,403.51 583.98,410.50 C582.28,418.97 580.33,423.79 576.78,428.27 C574.38,431.31 573.25,432.02 571.60,431.51 C566.66,429.99 562.41,428.87 561.25,428.77 C560.56,428.71 560.00,427.72 560.00,426.56 C560.00,422.48 556.21,420.56 548.75,420.86 C544.46,421.03 542.00,420.74 542.00,420.07 L 542.00 418.25 C542.00,417.84 542.56,417.50 543.25,417.50 C543.94,417.50 544.65,416.46 544.83,415.19 C545.01,413.92 545.76,412.65 546.50,412.36 C548.29,411.67 552.22,413.84 551.44,415.09 C550.59,416.47 556.29,415.00 557.24,413.60 C557.65,412.99 557.78,411.95 557.53,411.28 C557.29,410.61 557.52,409.80 558.05,409.47 C558.64,409.11 558.65,408.22 558.09,407.16 C557.52,406.11 557.54,404.79 558.13,403.72 C558.67,402.78 558.84,402.00 558.51,402.00 C556.95,402.00 559.30,399.24 562.99,396.30 C565.98,394.17 569.11,392.13 572.38,390.20 C580.25,385.75 590.28,381.11 600.75,376.96 C614.44,371.68 629.60,366.87 639.50,364.88 C641.70,364.44 652.05,362.28 662.50,360.07 C684.09,355.52 686.00,355.32 686.00,357.63 C686.00,359.73 681.64,371.83 679.06,376.88 L 679.06 376.88 C677.76,379.44 676.27,383.24 674.76,387.79 C672.24,395.34 669.66,404.82 667.90,413.28 C667.62,414.57 667.36,415.86 667.10,417.13 C666.76,418.86 666.40,420.60 666.04,422.30 C664.75,428.16 663.23,434.32 662.09,438.17 C661.73,439.27 661.32,440.64 660.91,442.09 C659.80,445.87 659.00,448.92 659.00,449.44 C659.00,449.51 658.99,449.60 658.98,449.71 C658.61,451.22 658.26,452.61 657.90,453.90 ZM 529.50 546.75 C534.41,532.90 539.71,520.83 541.31,519.82 C541.91,519.44 550.07,517.28 559.45,515.01 C581.66,509.64 584.42,508.81 582.81,507.94 C581.31,507.14 568.51,508.68 565.50,510.03 C562.76,511.26 545.02,514.35 544.38,513.71 C543.83,513.16 554.26,492.67 558.18,486.60 C561.12,482.03 564.47,480.74 595.50,472.28 C608.70,468.67 619.69,465.56 619.92,465.36 C620.15,465.16 620.07,464.73 619.74,464.41 C619.05,463.72 594.27,468.67 591.87,469.98 C590.97,470.47 587.51,471.36 584.18,471.97 C580.85,472.57 575.55,473.95 572.40,475.04 C569.25,476.12 566.48,476.82 566.25,476.59 C564.04,474.38 596.58,437.75 604.80,432.60 C603.82,433.49 603.33,435.28 603.70,437.23 C604.37,440.69 608.45,444.80 613.07,446.65 C615.05,447.44 618.41,449.92 620.53,452.16 C622.66,454.41 626.23,457.03 628.46,457.98 C630.70,458.94 633.14,460.46 633.89,461.36 C634.63,462.26 636.02,463.00 636.97,463.00 C637.91,463.00 639.48,463.87 640.44,464.94 C641.82,466.46 642.72,466.68 644.63,465.95 C646.44,465.26 647.21,465.38 647.60,466.40 C648.02,467.49 648.73,467.55 651.00,466.69 C652.92,465.97 654.56,463.72 656.17,459.38 C654.02,465.91 651.21,473.63 649.92,476.16 C641.90,491.92 626.18,509.06 611.36,518.22 C601.91,524.05 587.95,531.00 585.68,531.00 C584.93,531.00 579.18,532.75 572.91,534.89 C566.63,537.03 558.35,539.77 554.50,540.98 C543.42,544.46 535.19,549.01 530.47,554.25 C528.12,556.86 525.96,559.00 525.67,559.00 C525.38,559.00 527.11,553.49 529.50,546.75 ZM 507.00 428.65 C505.07,427.35 501.02,424.69 498.00,422.73 C488.93,416.86 482.95,409.17 480.10,400.41 C480.90,402.03 481.96,403.16 483.29,403.80 C484.89,404.57 486.22,406.20 486.55,407.80 C486.87,409.29 487.76,411.96 488.54,413.75 C491.45,420.38 499.46,416.17 505.33,404.94 C508.95,397.99 509.00,397.75 509.00,386.10 C509.00,375.15 508.82,374.05 506.54,370.90 C505.19,369.03 503.34,366.15 502.43,364.50 C500.83,361.60 500.90,361.63 504.70,365.27 L 508.63 369.05 L 509.82 358.77 C510.48,353.12 511.01,345.01 511.01,340.75 C511.00,328.73 512.70,331.61 513.50,344.98 C513.95,352.47 514.03,355.50 515.12,355.93 C515.92,356.24 517.28,355.14 519.75,353.37 C522.71,351.25 522.60,352.02 519.42,355.59 C514.68,360.94 513.90,362.76 513.31,369.90 C512.64,377.78 513.50,378.75 517.68,374.83 C521.90,370.87 521.44,373.96 517.18,378.17 C513.07,382.24 513.00,382.43 513.00,389.24 L 513.00 396.16 L 516.42 394.05 C520.96,391.24 521.51,392.61 517.95,397.91 L 515.04 402.24 L 516.99 404.98 C518.06,406.49 520.39,408.42 522.17,409.28 C524.99,410.65 525.74,410.67 528.15,409.42 C529.66,408.64 531.60,408.00 532.45,408.00 C533.87,408.00 534.46,406.80 534.09,404.68 C534.01,404.22 534.30,404.07 534.74,404.34 C536.21,405.25 538.93,402.34 541.19,397.42 C541.35,397.06 541.51,396.71 541.65,396.37 C540.16,401.34 537.71,405.28 534.00,409.00 C530.04,412.98 514.47,421.80 513.36,420.70 C512.75,420.09 512.53,403.12 512.83,380.50 C513.28,347.49 513.08,334.52 512.14,335.55 C510.98,336.83 508.98,376.39 508.99,397.81 C508.99,405.38 509.31,413.85 509.73,418.91 C509.57,418.22 509.33,417.70 509.00,417.50 C508.45,417.16 508.00,417.39 508.00,418.00 C508.00,418.61 507.52,418.82 506.93,418.46 C505.66,417.67 503.08,420.80 503.03,423.19 C503.01,424.12 503.98,425.57 505.18,426.41 C506.79,427.54 507.71,427.66 508.68,426.85 C509.54,426.14 509.99,423.60 509.98,421.33 C510.01,421.60 510.04,421.85 510.08,422.07 C510.67,425.90 511.01,429.47 510.83,430.02 C510.64,430.57 508.92,429.95 507.00,428.65 ZM 304.96 652.37 C301.30,645.20 298.13,638.18 296.88,633.99 C295.93,630.83 295.29,630.09 293.89,630.53 C292.35,631.02 292.15,629.70 292.27,607.54 C292.38,616.47 292.92,619.35 294.60,625.85 C296.08,631.57 300.54,642.74 304.96,652.37 ZM 611.45 430.36 C611.67,430.26 611.90,430.17 612.12,430.07 C614.53,429.01 620.55,427.16 625.50,425.97 C630.45,424.78 635.85,423.18 637.50,422.42 L 640.50 421.05 L 636.50 421.07 C634.84,421.08 630.66,421.79 626.16,422.79 C629.31,421.97 631.88,421.20 632.53,420.79 C634.59,419.51 645.72,418.74 646.40,419.84 C647.13,421.02 644.61,421.80 629.50,425.05 C624.00,426.23 616.76,428.28 613.42,429.60 C612.75,429.86 612.09,430.12 611.45,430.36 ZM 731.52 602.58 C731.78,628.01 731.60,633.06 730.48,632.63 C729.59,632.29 728.71,633.38 727.92,635.80 C727.14,638.19 724.93,642.94 722.23,648.24 C725.65,641.25 727.59,636.05 728.57,631.32 C729.45,627.04 730.53,622.86 730.95,622.02 C731.30,621.33 731.53,613.13 731.52,602.58 ZM 429.35 467.57 C413.69,445.59 410.61,442.00 407.88,442.00 C406.85,442.00 406.00,441.55 406.00,441.00 C406.00,440.45 406.67,440.00 407.50,440.00 C408.41,440.00 408.89,439.92 408.86,439.39 C408.95,439.63 409.00,439.81 409.00,439.92 C409.00,440.45 410.69,442.85 412.75,445.27 C414.81,447.69 418.74,452.78 421.48,456.58 C424.58,460.89 427.19,464.53 429.35,467.57 ZM 478.29 391.33 C477.24,378.26 482.30,363.63 493.58,349.50 C484.42,360.97 479.29,373.09 478.43,385.26 C478.28,387.47 478.23,389.49 478.29,391.33 ZM 341.32 695.23 C335.33,691.75 327.64,685.19 321.53,678.47 C327.68,685.14 335.00,691.43 341.32,695.23 ZM 712.76 665.51 C711.59,667.45 710.55,669.09 709.70,670.27 C708.61,671.80 707.27,673.47 705.77,675.20 C708.21,672.28 710.46,669.15 712.76,665.51 ZM 681.17 696.20 C675.45,699.44 669.94,701.39 661.62,703.30 C669.32,701.53 675.41,699.40 681.17,696.20 ZM 372.08 704.88 C367.36,704.37 361.22,702.93 355.42,701.08 C361.25,702.91 367.49,704.39 372.08,704.88 ZM 731.23 562.70 C731.22,565.25 731.22,567.50 731.22,569.65 C731.21,568.81 731.21,568.24 731.21,568.00 C731.20,567.66 731.21,565.79 731.23,562.70 ZM 543.47 382.78 C543.47,382.22 543.47,381.62 543.47,381.00 C543.48,379.11 543.47,377.50 543.45,376.11 C543.47,377.38 543.49,378.83 543.49,380.50 C543.49,381.28 543.48,382.04 543.47,382.78 ZM 437.81 479.90 C437.42,479.22 436.41,477.68 435.13,475.80 C436.50,477.80 437.37,479.13 437.81,479.90 ZM 606.11 432.01 C606.15,432.00 606.19,432.00 606.22,432.00 C606.29,432.00 606.37,431.99 606.46,431.98 C606.39,431.99 606.34,432.00 606.29,432.00 C606.23,432.00 606.17,432.00 606.11,432.01 Z" fill="rgba(149,166,73,1)"/>
<path d="M 647.60 466.40 C647.21,465.38 646.44,465.26 644.63,465.95 C642.72,466.68 641.82,466.46 640.44,464.94 C639.48,463.87 637.91,463.00 636.97,463.00 C636.02,463.00 634.63,462.26 633.89,461.36 C633.14,460.46 630.70,458.94 628.46,457.98 C626.23,457.03 622.66,454.41 620.53,452.16 C618.41,449.92 615.05,447.44 613.07,446.65 C608.45,444.80 604.37,440.69 603.70,437.23 C603.17,434.46 604.39,432.00 606.29,432.00 C606.87,432.00 610.08,430.92 613.42,429.60 C616.76,428.28 624.00,426.23 629.50,425.05 C644.61,421.80 647.13,421.02 646.40,419.84 C645.72,418.74 634.59,419.51 632.53,420.79 C630.56,422.03 611.00,426.58 611.00,425.81 C611.00,424.36 633.12,406.12 637.38,404.06 C639.71,402.93 644.97,401.15 649.06,400.09 C657.81,397.84 656.37,396.05 647.28,397.87 C644.19,398.49 641.49,398.83 641.28,398.61 C641.07,398.40 643.04,396.49 645.67,394.36 C648.29,392.24 651.36,389.76 652.47,388.85 C668.38,375.87 672.04,372.71 671.63,372.29 C671.09,371.76 642.29,389.36 635.00,394.68 C626.55,400.85 615.72,408.00 614.84,408.00 C612.81,408.00 617.97,400.19 626.35,390.54 C627.76,388.92 628.72,387.38 628.47,387.13 C627.48,386.15 615.35,399.87 613.09,404.54 C611.77,407.27 610.19,410.43 609.59,411.57 C608.30,414.02 592.27,428.32 589.75,429.28 C584.67,431.19 583.80,426.30 586.50,411.00 C587.32,406.33 587.97,401.60 587.93,400.50 C587.83,397.30 585.37,403.51 583.98,410.50 C582.28,418.97 580.33,423.79 576.78,428.27 C574.38,431.31 573.25,432.02 571.60,431.51 C566.66,429.99 562.41,428.87 561.25,428.77 C560.56,428.71 560.00,427.72 560.00,426.56 C560.00,422.48 556.21,420.56 548.75,420.86 C544.46,421.03 542.00,420.74 542.00,420.07 L 542.00 418.25 C542.00,417.84 542.56,417.50 543.25,417.50 C543.94,417.50 544.65,416.46 544.83,415.19 C545.01,413.92 545.76,412.65 546.50,412.36 C548.29,411.67 552.22,413.84 551.44,415.09 C550.59,416.47 556.29,415.00 557.24,413.60 C557.65,412.99 557.78,411.95 557.53,411.28 C557.29,410.61 557.52,409.80 558.05,409.47 C558.64,409.11 558.65,408.22 558.09,407.16 C557.52,406.11 557.54,404.79 558.13,403.72 C558.67,402.78 558.84,402.00 558.51,402.00 C556.46,402.00 561.19,397.19 566.86,393.52 C583.76,382.59 617.44,369.31 639.50,364.88 C641.70,364.44 652.05,362.28 662.50,360.07 C684.09,355.52 686.00,355.32 686.00,357.63 C686.00,359.73 681.64,371.83 679.06,376.88 C675.36,384.13 670.20,401.51 667.10,417.13 C665.41,425.68 663.32,434.67 662.45,437.09 C661.59,439.52 660.21,444.42 659.38,448.00 C656.59,460.11 654.17,465.50 651.00,466.69 C648.73,467.55 648.02,467.49 647.60,466.40 ZM 488.54 413.75 C487.76,411.96 486.87,409.29 486.55,407.80 C486.22,406.20 484.89,404.57 483.29,403.80 C479.36,401.91 477.71,395.62 478.43,385.26 C479.29,373.09 484.42,360.97 493.58,349.50 C498.02,343.95 507.81,327.57 509.95,322.12 C510.93,319.63 512.22,317.43 512.81,317.23 C513.41,317.03 515.10,319.26 516.57,322.18 C518.04,325.11 523.40,333.80 528.48,341.50 C533.56,349.20 539.01,358.65 540.61,362.50 C543.23,368.85 543.50,370.56 543.47,381.00 C543.45,390.79 543.11,393.23 541.19,397.42 C538.93,402.34 536.21,405.25 534.74,404.34 C534.30,404.07 534.01,404.22 534.09,404.68 C534.46,406.80 533.87,408.00 532.45,408.00 C531.60,408.00 529.66,408.64 528.15,409.42 C525.74,410.67 524.99,410.65 522.17,409.28 C520.39,408.42 518.06,406.49 516.99,404.98 L 515.04 402.24 L 517.95 397.91 C521.51,392.61 520.96,391.24 516.42,394.05 L 513.00 396.16 L 513.00 389.24 C513.00,382.43 513.07,382.24 517.18,378.17 C521.44,373.96 521.90,370.87 517.68,374.83 C513.50,378.75 512.64,377.78 513.31,369.90 C513.90,362.76 514.68,360.94 519.42,355.59 C522.60,352.02 522.71,351.25 519.75,353.37 C517.28,355.14 515.92,356.24 515.12,355.93 C514.03,355.50 513.95,352.47 513.50,344.98 C512.70,331.61 511.00,328.73 511.01,340.75 C511.01,345.01 510.48,353.12 509.82,358.77 L 508.63 369.05 L 504.70 365.27 C500.90,361.63 500.83,361.60 502.43,364.50 C503.34,366.15 505.19,369.03 506.54,370.90 C508.82,374.05 509.00,375.15 509.00,386.10 C509.00,397.75 508.95,397.99 505.33,404.94 C499.46,416.17 491.45,420.38 488.54,413.75 ZM 505.18 426.41 C503.98,425.57 503.01,424.12 503.03,423.19 C503.08,420.80 505.66,417.67 506.93,418.46 C507.52,418.82 508.00,418.61 508.00,418.00 C508.00,417.39 508.45,417.16 509.00,417.50 C510.46,418.41 510.22,425.57 508.68,426.85 C507.71,427.66 506.79,427.54 505.18,426.41 ZM 305.91 500.09 C305.74,511.06 305.57,523.01 305.38,536.02 L 304.70 583.62 C301.70,580.32 300.00,577.93 300.00,576.94 C300.00,576.60 301.06,575.84 302.35,575.25 L 304.69 574.18 L 305.40 530.84 C305.58,519.75 305.75,509.53 305.91,500.09 ZM 717.46 588.06 C717.59,587.94 717.71,587.81 717.83,587.68 L 720.13 585.23 L 719.60 541.87 C719.60,542.14 719.61,542.41 719.61,542.67 L 720.23 576.84 L 722.64 577.44 C724.72,577.97 724.89,578.33 723.94,580.11 C722.51,582.78 720.30,585.46 717.46,588.06 ZM 414.06 446.90 C410.67,442.83 409.16,442.00 407.54,442.00 C406.31,442.00 404.50,441.10 403.50,440.00 C401.42,437.71 401.86,437.52 405.46,439.16 C409.15,440.85 409.48,439.73 406.62,435.18 C409.42,439.64 409.47,440.00 407.50,440.00 C406.67,440.00 406.00,440.45 406.00,441.00 C406.00,441.55 406.85,442.00 407.88,442.00 C409.29,442.00 410.79,442.96 414.06,446.90 ZM 488.12 534.40 C493.85,543.61 498.16,551.25 500.73,556.80 C503.70,563.21 506.18,566.16 507.50,564.84 C508.05,564.28 509.29,559.59 510.62,553.58 C509.01,560.93 507.44,566.90 506.74,567.59 C506.37,567.97 504.10,564.05 501.70,558.89 C498.48,551.94 494.09,544.00 488.12,534.40 ZM 716.76 391.93 C716.24,385.48 715.54,381.62 714.54,376.73 C713.41,371.19 711.86,365.88 709.92,360.84 C711.88,365.88 713.46,371.18 714.64,376.73 C715.71,381.77 716.33,384.96 716.76,391.93 ZM 318.86 596.06 C325.48,600.22 333.45,603.87 340.00,605.54 C332.87,603.72 325.33,600.29 318.86,596.06 ZM 307.55 417.38 C308.13,396.17 308.67,388.34 309.45,383.73 C308.72,388.14 308.13,397.86 307.55,417.38 ZM 619.14 299.03 C644.96,301.60 666.60,310.05 682.92,323.46 C666.59,310.07 644.91,301.59 619.14,299.03 ZM 677.50 607.28 C683.19,605.99 688.97,604.14 694.38,601.95 C689.05,604.13 683.34,605.95 677.50,607.28 Z" fill="rgba(177,186,66,1)"/>
<path d="M 494.22 583.46 C491.86,582.71 482.70,580.47 473.86,578.47 C450.39,573.15 439.36,568.73 424.00,558.50 C408.11,547.92 395.33,533.74 386.58,517.16 C387.68,518.94 388.65,520.00 389.36,520.00 C390.02,520.00 391.33,520.90 392.27,522.00 C394.58,524.70 395.15,524.52 393.98,521.43 C392.74,518.20 392.75,517.73 394.02,518.51 C394.58,518.86 395.71,517.54 396.53,515.57 C397.36,513.61 398.36,511.99 398.76,511.99 C399.17,511.98 400.32,510.07 401.33,507.74 C408.36,491.50 412.32,485.31 416.23,484.45 C418.47,483.96 418.90,483.55 417.88,482.91 C416.73,482.18 416.75,482.01 418.00,481.93 C418.83,481.87 418.15,481.42 416.50,480.92 C414.85,480.43 412.15,480.25 410.50,480.53 C408.85,480.81 406.83,480.60 406.00,480.06 C404.68,479.19 404.69,478.88 406.10,477.47 C407.40,476.18 408.89,476.00 413.85,476.56 C417.23,476.95 420.00,477.65 420.00,478.13 C420.00,478.28 420.08,478.41 420.21,478.52 C416.08,478.11 413.00,478.11 413.00,478.75 C413.00,479.28 415.41,480.01 418.36,480.35 C421.31,480.70 427.78,482.04 432.75,483.33 C442.38,485.83 443.29,486.51 451.49,497.30 C455.73,502.88 467.21,520.48 469.89,525.50 C472.44,530.27 471.68,530.74 464.02,529.10 C456.72,527.53 436.55,526.46 437.30,527.68 C437.64,528.23 445.91,529.76 455.67,531.08 C470.78,533.13 473.84,533.83 476.21,535.83 C477.74,537.12 479.00,538.58 479.00,539.07 C479.00,539.56 480.80,542.90 482.99,546.49 C489.68,557.41 501.00,581.11 501.00,584.17 C501.00,585.26 499.42,585.09 494.22,583.46 ZM 419.80 444.93 C428.67,454.70 432.16,458.00 433.53,458.00 C433.92,458.00 433.63,457.21 432.87,456.25 C431.62,454.65 431.66,454.62 433.30,455.91 C434.28,456.69 434.90,457.83 434.66,458.45 C434.42,459.06 435.08,459.57 436.11,459.57 C437.52,459.57 438.00,458.85 438.00,456.75 C438.00,454.98 439.04,452.91 440.79,451.21 C442.32,449.71 445.11,445.78 446.97,442.49 C448.84,439.20 450.63,436.27 450.94,436.00 C451.26,435.73 452.39,433.83 453.46,431.80 C454.53,429.76 456.84,427.32 458.60,426.38 C463.65,423.66 461.59,420.85 451.62,416.90 C447.74,415.36 444.13,413.83 442.89,413.21 C445.20,414.23 449.21,415.90 452.04,417.02 C464.24,421.82 479.79,431.95 487.60,440.18 C492.75,445.59 499.95,455.88 503.39,462.73 C510.41,476.71 513.53,488.23 515.17,506.14 C516.16,516.98 516.08,520.62 514.60,531.79 C513.11,543.12 508.69,563.64 507.50,564.84 C506.18,566.16 503.70,563.21 500.73,556.80 C496.67,548.02 488.23,533.97 476.71,516.82 L 468.20 504.13 L 467.46 494.33 C467.06,488.93 466.99,479.91 467.31,474.28 C467.90,463.79 466.85,459.71 465.50,467.27 C465.09,469.60 464.47,477.48 464.12,484.78 L 463.50 498.07 L 446.86 477.28 C436.45,464.28 427.09,453.13 419.80,444.93 ZM 300.01 577.05 C299.43,576.11 298.93,575.19 298.49,574.30 C296.85,570.90 295.21,568.08 294.86,568.05 C294.56,568.03 294.30,568.16 294.07,568.48 C294.34,567.27 294.09,565.72 293.27,563.12 C292.01,559.16 291.89,546.96 292.40,478.00 C292.42,475.28 292.44,472.59 292.46,469.93 C292.53,476.41 292.70,479.73 292.96,479.00 C293.83,476.57 295.54,460.87 295.45,456.17 C295.41,454.00 295.49,453.96 296.66,455.67 C297.35,456.68 298.71,458.31 299.69,459.30 C301.40,461.04 301.49,461.00 302.26,458.30 C302.70,456.76 303.50,454.12 304.03,452.43 C304.56,450.74 305.00,443.01 305.00,435.26 C305.00,427.39 305.41,421.02 305.94,420.83 C306.45,420.65 307.16,414.20 307.51,406.50 C307.76,400.98 308.13,395.93 308.63,391.24 C307.61,405.20 306.93,437.74 305.40,530.84 L 304.69 574.18 L 302.35 575.25 C301.06,575.84 300.00,576.60 300.00,576.94 C300.00,576.97 300.00,577.01 300.01,577.05 ZM 731.23 570.92 C730.87,569.81 730.41,569.00 730.11,569.00 C729.73,569.00 727.99,571.91 726.24,575.47 C725.67,576.63 725.09,577.73 724.48,578.77 C724.58,578.08 724.04,577.80 722.64,577.44 L 720.23 576.84 L 719.61 542.67 C719.27,523.88 718.58,481.50 718.07,448.50 C717.64,420.45 717.39,405.43 716.98,396.13 C717.33,402.30 717.55,409.52 717.71,418.25 C718.01,434.61 718.64,448.00 719.12,448.00 C719.61,448.00 720.03,449.91 720.07,452.25 C720.12,455.54 720.33,456.05 721.00,454.50 C721.74,452.77 721.88,452.90 721.99,455.50 C722.11,458.22 722.21,458.30 722.99,456.35 C723.90,454.10 725.80,452.47 726.60,453.26 C726.85,453.52 727.25,454.71 727.48,455.91 C727.71,457.11 728.35,459.53 728.89,461.29 C729.44,463.06 730.32,466.08 730.84,468.00 C731.28,469.62 731.58,468.19 731.73,464.13 C731.79,477.64 731.76,492.48 731.63,508.50 C731.38,539.85 731.19,566.62 731.21,568.00 C731.21,568.34 731.22,569.36 731.23,570.92 ZM 423.85 478.94 C425.56,478.79 427.31,478.34 427.88,477.65 C429.10,476.18 429.04,471.00 427.80,471.00 C426.33,471.00 423.77,465.96 423.55,462.61 C423.42,460.68 421.86,457.51 419.72,454.23 C422.70,458.25 426.51,463.56 431.48,470.56 C434.24,474.44 437.09,478.65 437.81,479.90 C438.99,481.94 438.94,482.12 437.31,481.62 C433.78,480.55 428.55,479.57 423.85,478.94 ZM 668.69 608.51 C656.54,609.33 626.03,609.44 519.50,609.73 C413.66,610.01 367.60,609.81 360.50,609.01 C358.44,608.78 356.44,608.53 354.52,608.25 C370.24,609.82 403.15,609.78 517.00,609.59 C625.61,609.40 656.49,609.32 668.69,608.51 ZM 406.49 441.83 C403.81,441.20 400.00,439.01 400.00,437.89 C400.00,437.19 401.45,437.07 404.17,437.53 L 408.27 438.22 C409.03,440.14 408.11,440.37 405.46,439.16 C401.86,437.52 401.42,437.71 403.50,440.00 C404.24,440.81 405.42,441.52 406.49,441.83 ZM 684.52 324.80 C668.01,310.61 645.81,301.68 619.14,299.03 C646.22,301.72 668.07,310.35 684.52,324.80 ZM 717.83 346.89 C711.12,333.93 701.43,321.26 691.16,312.41 C686.45,308.35 681.54,304.77 676.39,301.66 C687.82,308.45 697.72,317.30 705.95,328.14 C710.69,334.40 714.59,340.51 717.83,346.89 ZM 715.75 382.38 C715.44,380.55 715.08,378.80 714.64,376.73 C713.43,371.03 711.79,365.59 709.75,360.43 C712.74,367.33 714.58,373.71 715.75,382.38 ZM 708.14 595.00 C699.92,600.33 690.06,604.33 678.46,607.06 C689.43,604.46 699.87,600.12 708.14,595.00 ZM 328.70 337.35 C335.42,328.14 344.17,320.36 354.51,314.23 C344.37,320.31 335.71,328.06 328.70,337.35 ZM 293.54 399.55 C293.71,393.59 293.89,389.61 294.07,388.09 C297.30,359.87 307.89,337.19 326.54,318.54 C307.54,337.54 296.86,360.81 294.10,389.18 C293.92,391.02 293.72,394.68 293.54,399.55 ZM 382.17 507.77 C381.22,505.48 380.34,503.16 379.54,500.80 C378.35,497.33 377.46,494.04 376.74,490.08 C377.95,495.72 380.00,502.25 382.17,507.77 ZM 404.67 430.05 C404.86,430.06 405.11,430.11 405.40,430.18 C405.98,430.31 409.30,433.55 413.46,437.99 C409.03,433.30 405.95,430.50 404.67,430.05 ZM 311.31 374.79 C312.85,368.13 314.91,362.11 317.63,356.21 C315.05,362.02 312.94,368.21 311.31,374.79 ZM 328.70 601.49 C323.50,599.23 318.92,596.47 314.68,593.10 C318.83,596.29 323.68,599.18 328.70,601.49 ZM 413.14 445.82 C411.15,443.75 409.31,442.28 408.09,442.04 C409.38,442.21 410.73,443.07 413.14,445.82 ZM 386.99 391.12 C372.07,383.85 363.74,377.11 356.51,367.90 C363.71,377.07 372.16,383.87 386.99,391.12 ZM 292.57 580.68 C292.45,584.15 292.38,588.49 292.33,593.85 C292.21,605.44 292.21,611.23 292.62,615.62 C292.20,611.22 292.20,605.42 292.31,593.85 C292.35,588.71 292.44,584.29 292.57,580.68 ZM 375.23 477.81 C374.75,472.07 374.36,464.91 373.96,455.50 C374.29,463.32 374.78,471.70 375.23,477.81 ZM 408.12 437.87 L 406.17 434.56 C405.46,433.35 404.94,432.44 404.60,431.77 C405.07,432.65 405.78,433.86 406.57,435.11 C407.28,436.24 407.80,437.15 408.12,437.87 ZM 728.57 631.32 C729.45,627.04 730.51,622.86 730.92,622.02 C731.00,621.84 731.09,621.32 731.16,620.52 C731.10,621.35 731.03,621.87 730.95,622.02 C730.53,622.86 729.45,627.04 728.57,631.32 ZM 293.53 569.79 C293.28,570.75 293.08,572.15 292.91,574.12 C293.09,571.86 293.30,570.39 293.53,569.79 ZM 728.77 380.49 C728.60,379.32 728.42,378.20 728.22,377.10 C728.41,378.06 728.60,379.19 728.77,380.49 ZM 430.80 408.53 C429.73,408.16 428.69,407.79 427.65,407.42 C428.26,407.64 428.88,407.85 429.50,408.07 C429.93,408.22 430.36,408.38 430.80,408.53 Z" fill="rgba(226,181,60,1)"/>
<path d="M 292.58 440.50 C292.86,417.95 293.54,394.86 294.10,389.18 C296.86,360.81 307.54,337.54 326.54,318.54 C344.91,300.18 367.50,289.28 393.97,286.04 C404.85,284.71 612.61,284.67 626.28,286.00 C652.54,288.56 673.28,297.00 691.16,312.41 C704.96,324.30 717.70,343.08 723.60,360.20 C728.91,375.62 730.02,383.71 730.99,414.00 C732.19,451.34 732.13,472.74 730.84,468.00 C730.32,466.08 729.44,463.06 728.89,461.29 C728.35,459.53 727.71,457.11 727.48,455.91 C727.25,454.71 726.85,453.52 726.60,453.26 C725.80,452.47 723.90,454.10 722.99,456.35 C722.21,458.30 722.11,458.22 721.99,455.50 C721.88,452.90 721.74,452.77 721.00,454.50 C720.33,456.05 720.12,455.54 720.07,452.25 C720.03,449.91 719.61,448.00 719.12,448.00 C718.64,448.00 718.01,434.61 717.71,418.25 C717.05,381.68 715.35,371.51 707.11,354.72 C691.02,321.95 661.47,303.24 619.14,299.03 C605.05,297.63 416.70,297.65 402.86,299.05 C369.23,302.46 341.83,317.31 326.58,340.40 C313.57,360.09 308.89,376.31 307.51,406.50 C307.16,414.20 306.45,420.65 305.94,420.83 C305.41,421.02 305.00,427.39 305.00,435.26 C305.00,443.01 304.56,450.74 304.03,452.43 C303.50,454.12 302.70,456.76 302.26,458.30 C301.49,461.00 301.40,461.04 299.69,459.30 C298.71,458.31 297.35,456.68 296.66,455.67 C295.49,453.96 295.41,454.00 295.45,456.17 C295.54,460.87 293.83,476.57 292.96,479.00 C292.43,480.50 292.27,465.07 292.58,440.50 ZM 392.27 522.00 C391.33,520.90 390.02,520.00 389.36,520.00 C386.10,520.00 377.54,497.94 375.91,485.34 C375.36,481.03 374.48,467.60 373.96,455.50 C372.25,415.94 371.07,411.00 355.04,376.69 C347.88,361.37 348.49,357.71 356.51,367.90 C368.90,383.68 384.50,392.20 431.00,408.61 C436.77,410.64 441.95,412.62 442.50,412.99 C443.05,413.37 447.15,415.13 451.62,416.90 C461.59,420.85 463.65,423.66 458.60,426.38 C456.84,427.32 454.53,429.76 453.46,431.80 C452.39,433.83 451.26,435.73 450.94,436.00 C450.63,436.27 448.84,439.20 446.97,442.49 C445.11,445.78 442.32,449.71 440.79,451.21 C439.04,452.91 438.00,454.98 438.00,456.75 C438.00,458.85 437.52,459.57 436.11,459.57 C435.08,459.57 434.42,459.06 434.66,458.45 C434.90,457.83 434.28,456.69 433.30,455.91 C431.66,454.62 431.62,454.65 432.87,456.25 C433.63,457.21 433.92,458.00 433.53,458.00 C432.06,458.00 428.11,454.16 417.61,442.50 C411.66,435.90 406.17,430.35 405.40,430.18 C403.53,429.75 403.62,430.24 406.17,434.56 L 408.33 438.23 L 404.17 437.53 C401.45,437.07 400.00,437.19 400.00,437.89 C400.00,439.21 405.26,442.00 407.75,442.00 C411.53,442.00 423.19,457.21 423.55,462.61 C423.77,465.96 426.33,471.00 427.80,471.00 C429.04,471.00 429.10,476.18 427.88,477.65 C426.65,479.13 420.00,479.53 420.00,478.13 C420.00,477.65 417.23,476.95 413.85,476.56 C408.89,476.00 407.40,476.18 406.10,477.47 C404.69,478.88 404.68,479.19 406.00,480.06 C406.83,480.60 408.85,480.81 410.50,480.53 C412.15,480.25 414.85,480.43 416.50,480.92 C418.15,481.42 418.83,481.87 418.00,481.93 C416.75,482.01 416.73,482.18 417.88,482.91 C418.90,483.55 418.47,483.96 416.23,484.45 C412.32,485.31 408.36,491.50 401.33,507.74 C400.32,510.07 399.17,511.98 398.76,511.99 C398.36,511.99 397.36,513.61 396.53,515.57 C395.71,517.54 394.58,518.86 394.02,518.51 C392.75,517.73 392.74,518.20 393.98,521.43 C395.15,524.52 394.58,524.70 392.27,522.00 Z" fill="rgba(241,199,70,1)"/>
<path d="M 372.08 704.88 C363.36,703.94 348.65,699.45 342.20,695.75 C332.04,689.92 318.95,677.22 312.38,666.80 C307.18,658.58 296.99,635.09 294.60,625.85 C292.27,616.81 292.12,614.82 292.33,593.85 C292.52,573.42 293.07,567.90 294.86,568.05 C295.21,568.08 296.85,570.90 298.49,574.30 C300.48,578.41 304.02,583.03 308.99,588.00 C321.32,600.31 335.88,606.25 360.50,609.01 C367.60,609.81 413.66,610.01 519.50,609.73 C665.16,609.33 668.70,609.28 677.50,607.28 C689.76,604.50 700.12,600.31 708.66,594.66 C717.56,588.79 722.13,583.80 726.24,575.47 C727.99,571.91 729.73,569.00 730.11,569.00 C730.48,569.00 731.10,570.24 731.48,571.75 C732.38,575.34 731.88,620.04 730.92,622.02 C730.51,622.86 729.45,627.04 728.57,631.32 C727.44,636.77 725.05,642.83 720.57,651.54 C712.65,666.97 707.21,674.68 698.24,683.14 C685.78,694.89 676.84,699.81 661.62,703.30 C652.64,705.35 650.46,705.39 516.50,705.58 C440.92,705.69 376.76,705.38 372.08,704.88 ZM 423.97 684.52 C425.55,683.70 427.78,681.72 428.92,680.11 C430.84,677.41 431.00,675.82 431.00,659.10 L 431.00 641.00 L 427.20 641.00 C425.11,641.00 422.91,641.49 422.31,642.09 C421.52,642.88 420.48,642.71 418.57,641.46 C416.54,640.12 414.67,639.86 410.40,640.30 C403.94,640.96 402.34,642.06 399.86,647.50 C395.72,656.60 398.77,667.67 406.45,671.42 C410.23,673.28 410.55,673.28 414.94,671.61 C423.22,668.45 423.00,668.44 423.00,671.93 C423.00,678.05 413.58,682.81 410.00,678.50 C408.82,677.08 401.00,676.29 401.00,677.60 C401.00,679.17 404.57,683.96 406.42,684.86 C409.64,686.42 420.70,686.20 423.97,684.52 ZM 485.95 671.65 C491.08,668.26 493.30,663.90 493.40,657.00 C493.54,646.65 486.61,640.00 475.69,640.00 C465.99,640.00 460.00,646.37 460.00,656.68 C460.00,662.71 461.25,666.54 464.32,669.88 C469.60,675.63 478.79,676.39 485.95,671.65 ZM 569.73 672.35 C574.83,668.54 576.42,665.37 576.77,658.22 C577.36,646.35 572.82,641.06 561.34,640.28 C555.35,639.86 554.07,640.10 551.05,642.16 C545.90,645.67 543.83,649.92 543.87,656.93 C543.91,665.25 547.44,671.17 554.00,673.93 C557.81,675.53 566.66,674.65 569.73,672.35 ZM 629.20 672.55 C631.14,671.72 636.00,665.66 636.00,664.07 C636.00,662.02 629.44,662.96 626.00,665.50 C624.14,666.88 621.55,668.00 620.26,668.00 C617.38,668.00 613.00,663.82 613.00,661.08 C613.00,659.19 613.73,659.05 624.75,658.78 L 636.50 658.50 L 636.31 654.21 C636.07,648.92 632.91,643.60 628.79,641.55 C627.09,640.69 623.13,640.00 619.99,640.00 C609.93,640.00 604.00,646.22 604.00,656.79 C604.00,665.88 608.63,672.35 616.28,673.93 C619.51,674.60 626.01,673.90 629.20,672.55 ZM 662.36 673.62 C669.46,670.66 672.33,662.47 667.75,658.30 C664.64,655.47 662.19,654.35 657.34,653.54 C652.27,652.70 649.08,649.68 650.64,647.19 C652.42,644.36 656.87,644.50 660.00,647.50 C661.94,649.36 663.61,650.06 665.56,649.83 C669.42,649.37 669.61,647.71 666.21,643.90 C663.65,641.05 662.55,640.60 657.19,640.21 C646.35,639.42 642.00,641.96 642.00,649.05 C642.00,654.38 644.99,657.33 652.06,658.97 C661.68,661.19 664.43,664.36 659.54,667.57 C656.23,669.73 651.24,668.63 649.78,665.41 C648.89,663.47 647.92,663.00 644.84,663.00 C640.60,663.00 640.28,663.70 642.52,668.04 C645.55,673.90 655.19,676.62 662.36,673.62 ZM 362.20 668.50 C363.18,665.75 364.74,662.94 365.68,662.25 C366.64,661.55 370.28,661.00 374.00,661.00 C377.79,661.00 381.29,661.53 382.20,662.25 C383.06,662.94 384.54,665.86 385.47,668.75 C387.12,673.88 387.25,674.00 391.02,674.00 C393.14,674.00 395.12,673.62 395.41,673.15 C396.04,672.13 393.46,665.11 381.98,636.50 C379.20,629.59 379.11,629.49 374.58,628.58 C372.06,628.08 369.75,627.91 369.45,628.22 C368.56,629.11 352.00,671.75 352.00,673.15 C352.00,673.68 353.89,673.98 356.21,673.81 C360.27,673.51 360.48,673.33 362.20,668.50 ZM 447.00 662.30 C447.30,655.56 447.98,650.61 448.70,649.90 C449.36,649.24 451.61,648.43 453.70,648.09 C457.24,647.52 457.52,647.22 457.81,643.74 C458.10,640.20 457.96,640.00 455.20,640.00 C453.59,640.00 451.08,640.93 449.63,642.07 C447.45,643.79 447.00,643.88 447.00,642.57 C447.00,641.40 445.97,641.00 443.00,641.00 L 439.00 641.00 L 439.00 657.56 L 439.00 674.12 L 442.75 673.81 L 446.50 673.50 L 447.00 662.30 ZM 507.00 658.00 C507.00,649.20 507.34,642.02 507.75,642.04 C508.16,642.07 513.22,649.29 518.99,658.09 L 529.49 674.09 L 533.49 673.80 L 537.50 673.50 L 537.77 651.25 L 538.04 629.00 L 534.02 629.00 L 530.00 629.00 L 530.00 642.94 C530.00,650.61 529.58,657.14 529.07,657.45 C528.56,657.77 523.79,651.50 518.46,643.51 L 508.77 629.00 L 503.88 629.00 L 499.00 629.00 L 499.00 651.50 L 499.00 674.00 L 503.00 674.00 L 507.00 674.00 L 507.00 658.00 ZM 599.50 670.50 C599.50,667.97 599.07,667.45 596.75,667.18 L 594.00 666.87 L 594.00 657.00 L 594.00 647.13 L 596.75 646.82 C598.91,646.57 599.57,645.91 599.82,643.75 C600.10,641.28 599.82,641.00 597.07,641.00 C593.79,641.00 593.59,640.60 593.95,634.75 L 594.17 631.00 L 589.64 631.00 L 585.11 631.00 L 584.80 635.75 C584.54,639.80 584.17,640.55 582.25,640.82 C580.50,641.07 580.00,641.79 580.00,644.07 C580.00,646.50 580.41,647.00 582.41,647.00 C584.79,647.00 584.83,647.13 585.16,658.09 C585.49,668.87 585.58,669.25 588.37,671.64 C590.60,673.56 592.14,674.04 595.37,673.80 C599.23,673.52 599.50,673.30 599.50,670.50 ZM 409.07 663.37 C405.99,659.45 406.19,651.72 409.45,648.45 C415.54,642.36 424.17,648.38 422.67,657.66 C421.39,665.52 413.40,668.87 409.07,663.37 ZM 471.16 665.47 C464.75,657.33 469.89,644.43 478.66,646.63 C481.63,647.38 484.99,652.40 485.00,656.10 C485.01,665.69 476.08,671.73 471.16,665.47 ZM 554.92 665.42 C552.91,663.28 552.50,661.81 552.50,656.83 C552.50,651.46 552.80,650.57 555.37,648.36 C557.65,646.40 558.88,646.03 561.37,646.56 C565.68,647.48 566.82,648.61 568.05,653.20 C571.00,664.14 561.78,672.72 554.92,665.42 ZM 613.71 653.37 C612.43,652.09 612.97,649.34 614.83,647.65 C618.90,643.97 628.70,647.10 627.80,651.81 C627.55,653.15 626.14,653.56 620.95,653.79 C617.35,653.95 614.10,653.76 613.71,653.37 ZM 368.00 654.19 C368.00,652.21 372.60,640.02 373.44,639.77 C374.48,639.47 379.00,650.39 379.00,653.21 C379.00,654.71 378.11,655.00 373.50,655.00 C370.48,655.00 368.00,654.64 368.00,654.19 Z" fill="rgba(251,251,251,1)"/>
</g>
</svg>