<?xml version="1.0" standalone="no"?>
<!DOCTYPE svg PUBLIC "-//W3C//DTD SVG 20010904//EN"
 "http://www.w3.org/TR/2001/REC-SVG-20010904/DTD/svg10.dtd">
<svg version="1.0" xmlns="http://www.w3.org/2000/svg"
 width="452.000000pt" height="465.000000pt" viewBox="0 0 452.000000 465.000000"
 preserveAspectRatio="xMidYMid meet">

<g transform="translate(0.000000,465.000000) scale(0.100000,-0.100000)"
fill="#000000" stroke="none">
<path d="M1200 4413 c-263 -11 -515 -117 -685 -287 -125 -126 -215 -279 -254
-432 -42 -170 -50 -278 -56 -784 -2 -267 -8 -674 -12 -905 -3 -232 -3 -433 0
-447 15 -57 213 -177 352 -212 150 -39 162 -39 1615 -43 1411 -4 1621 -1 1755
29 156 34 302 101 383 176 l44 40 -7 559 c-12 1053 -22 1387 -44 1493 -27 133
-55 213 -108 305 -154 267 -388 427 -721 493 -79 15 -186 17 -1147 17 -583 0
-1085 -1 -1115 -2z m1094 -226 c10 -23 60 -105 111 -182 113 -171 131 -206
156 -302 56 -219 -22 -384 -229 -488 -30 -14 -56 -25 -58 -23 -10 11 -15 170
-6 197 6 17 7 33 2 36 -5 3 -6 83 -3 178 4 152 7 176 25 202 12 17 15 24 7 18
-7 -7 -17 -13 -21 -13 -4 0 -8 55 -8 123 -1 184 -15 121 -29 -123 -19 -358
-14 -589 14 -703 7 -27 5 -27 -86 33 -125 81 -167 123 -209 205 -34 67 -35 72
-35 185 1 108 2 119 33 184 29 62 105 184 122 196 15 10 115 178 148 248 19
39 37 72 41 72 3 0 14 -20 25 -43z m1690 -408 c-9 -29 -19 -58 -24 -64 -4 -5
-15 -32 -25 -60 -10 -27 -22 -54 -26 -60 -21 -30 -73 -212 -104 -367 -49 -248
-117 -474 -177 -591 -78 -155 -230 -320 -374 -408 -154 -95 -281 -148 -569
-239 -142 -44 -232 -103 -271 -176 -15 -28 -34 -45 -34 -31 0 10 87 237 123
322 l43 99 184 47 c102 25 201 51 220 57 63 21 -133 4 -255 -22 -60 -13 -111
-23 -113 -21 -4 3 103 211 136 262 33 53 48 59 373 149 134 37 246 69 248 71
2 2 2 6 -1 9 -8 7 -398 -74 -480 -100 l-67 -22 22 30 c74 106 159 205 259 302
126 123 144 132 376 195 l107 29 -65 -5 c-36 -3 -107 -16 -159 -30 -52 -14
-96 -24 -98 -21 -4 4 202 178 252 213 17 11 60 30 98 42 37 13 67 25 67 28 0
3 -26 2 -57 -1 -48 -5 -55 -4 -43 6 9 7 72 58 140 113 142 113 154 124 148
131 -8 7 -359 -214 -489 -308 -37 -26 -70 -48 -74 -48 -9 0 41 87 72 124 13
16 22 31 19 34 -9 8 -74 -71 -97 -118 -12 -25 -27 -54 -33 -66 -6 -11 -69 -71
-140 -134 l-128 -113 7 64 c4 35 13 102 20 149 16 112 3 124 -20 18 -54 -256
-72 -308 -121 -349 -10 -8 -57 -63 -107 -123 l-89 -110 7 70 c4 38 13 127 21
198 8 71 13 131 11 133 -17 16 -49 -135 -88 -401 -7 -54 -19 -93 -37 -120 -14
-23 -54 -97 -88 -164 l-63 -124 -16 39 c-55 131 -77 315 -56 463 45 306 263
591 577 752 249 128 497 206 909 285 44 8 96 18 115 22 19 4 38 5 43 1 4 -3 0
-31 -9 -61z m-3248 -96 c79 -92 292 -218 482 -284 48 -17 96 -34 107 -39 11
-4 67 -25 125 -45 58 -21 109 -41 115 -46 5 -5 15 -9 23 -9 18 0 247 -114 262
-131 3 -3 21 -15 40 -26 48 -30 162 -147 206 -211 121 -180 180 -368 190 -602
7 -153 -7 -269 -54 -460 l-29 -115 -37 80 c-52 110 -130 242 -250 420 l-101
150 -4 205 c-4 200 -4 203 -17 140 -7 -36 -13 -118 -13 -183 l-1 -119 -77 99
c-182 233 -296 371 -423 508 -30 33 -75 83 -100 110 -46 52 -81 81 -65 54 5
-8 35 -52 67 -98 44 -64 55 -87 46 -94 -10 -7 -10 -10 2 -14 8 -3 30 -22 47
-42 36 -40 252 -344 248 -349 -1 -2 -31 4 -66 12 -35 7 -93 17 -129 20 -71 6
-68 4 75 -30 159 -39 156 -37 222 -127 99 -134 239 -354 231 -362 -2 -2 -32 3
-68 10 -80 17 -295 30 -263 16 11 -5 95 -20 185 -32 89 -13 168 -27 175 -31 9
-7 102 -169 174 -301 21 -39 97 -217 93 -217 -3 0 -21 8 -42 19 -20 10 -111
36 -202 56 -330 75 -507 159 -687 329 -107 100 -170 186 -233 314 -77 155 -97
259 -110 562 -6 135 -18 288 -26 341 -17 116 -64 256 -134 403 -59 125 -80
179 -80 210 1 19 3 18 26 -9 14 -16 46 -54 70 -82z"/>
<path d="M3386 3494 c-5 -14 -4 -15 9 -4 17 14 19 20 6 20 -5 0 -12 -7 -15
-16z"/>
<path d="M821 1098 c-5 -13 -41 -104 -79 -203 -39 -99 -74 -193 -78 -208 -6
-28 -6 -28 36 -25 42 3 43 3 64 63 l21 60 89 0 88 0 23 -60 22 -60 48 -3 c36
-2 46 0 42 10 -51 132 -102 263 -133 345 l-39 103 -48 0 c-40 0 -49 -4 -56
-22z m84 -161 c14 -37 25 -72 25 -77 0 -6 -25 -10 -55 -10 -61 0 -64 4 -41 66
27 75 37 97 41 92 2 -2 16 -34 30 -71z"/>
<path d="M2123 1105 c-3 -9 -2 -113 2 -231 l7 -215 35 3 35 3 -1 146 c-1 80 1
153 5 162 4 12 35 -27 116 -148 l109 -165 45 0 44 0 -2 228 -3 227 -40 0 -40
0 -2 -148 c-1 -82 -3 -151 -6 -153 -2 -2 -50 66 -106 151 l-102 155 -45 0
c-31 0 -46 -5 -51 -15z"/>
<path d="M2988 1048 c-3 -36 -7 -43 -28 -48 -18 -4 -26 -14 -28 -32 -3 -23 1
-27 25 -30 l28 -3 3 -105 c1 -58 7 -115 13 -126 15 -28 50 -44 99 -44 39 0 40
1 40 34 0 32 -3 35 -32 38 l-33 3 0 100 0 100 28 3 c23 3 27 8 27 33 0 26 -3
29 -30 29 -29 0 -30 2 -30 45 l0 45 -39 0 c-40 0 -40 0 -43 -42z"/>
<path d="M81 1064 c0 -11 3 -14 6 -6 3 7 2 16 -1 19 -3 4 -6 -2 -5 -13z"/>
<path d="M4413 1014 c-15 -46 -19 -72 -13 -87 8 -20 9 -19 9 9 1 17 8 48 17
69 8 20 14 45 12 56 -2 10 -13 -11 -25 -47z"/>
<path d="M91 1020 c-2 -39 27 -178 51 -243 l21 -58 13 30 c7 17 17 31 21 31
10 0 73 -92 73 -106 0 -7 7 -17 15 -24 12 -10 13 -16 3 -28 -10 -13 -10 -14 0
-8 23 14 12 -12 -12 -27 -18 -12 -26 -13 -36 -4 -15 14 25 -58 55 -98 40 -54
78 -90 82 -78 2 7 11 9 19 6 8 -3 14 0 14 5 0 17 30 42 51 42 11 0 55 -26 99
-57 75 -55 95 -76 68 -70 -7 1 -13 -7 -12 -18 0 -18 -27 -55 -41 -55 -3 0 -12
0 -22 0 -24 0 17 -34 76 -61 25 -13 48 -26 51 -30 3 -4 19 -10 35 -13 17 -3
25 -4 19 -1 -25 12 -2 52 45 77 45 25 50 25 102 13 29 -7 66 -16 82 -19 23 -5
26 -10 21 -31 -7 -29 4 -68 17 -59 6 3 8 13 5 21 -4 10 -2 13 8 10 8 -3 16 -2
18 3 5 15 48 -1 48 -17 0 -12 2 -12 16 1 8 9 22 16 30 16 8 0 14 7 14 16 0 10
-6 14 -14 11 -8 -3 -19 0 -24 6 -8 9 251 12 1136 14 1169 2 1397 7 1434 29 4
2 10 0 13 -6 4 -6 1 -9 -6 -8 -7 2 -15 -5 -17 -15 -4 -18 -3 -18 22 -2 24 16
31 14 27 -7 -2 -15 8 -8 19 13 9 15 8 24 -2 37 -12 15 -11 16 5 3 15 -12 17
-12 11 3 -4 9 -1 16 6 16 17 0 159 86 190 115 14 13 38 26 55 29 16 3 31 10
33 14 1 5 14 7 28 4 20 -3 26 0 31 17 5 19 15 25 36 22 7 -1 11 15 7 38 -1 9
4 12 14 8 8 -3 18 -2 21 3 3 5 -2 10 -11 12 -14 3 -13 7 5 30 25 32 28 49 3
22 -67 -73 -210 -168 -298 -199 -146 -51 -122 -50 -1624 -50 -1537 0 -1471 -2
-1617 61 -17 8 -34 14 -37 14 -16 0 -124 78 -182 132 -95 89 -146 160 -214
298 -37 74 -65 118 -71 114 -7 -4 -9 1 -4 15 3 12 2 21 -4 21 -5 0 -12 10 -14
23 -4 21 -4 21 -6 -3z"/>
<path d="M1222 1000 c-65 -15 -102 -72 -102 -160 0 -58 18 -106 48 -134 30
-26 103 -32 147 -12 19 9 40 14 45 11 16 -10 0 -58 -28 -83 -28 -26 -71 -25
-102 3 -23 21 -80 20 -80 -1 0 -71 119 -108 219 -68 70 28 76 45 79 248 4 190
3 196 -45 196 -12 0 -29 -7 -37 -15 -13 -14 -18 -14 -38 -2 -32 20 -67 26
-106 17z m117 -86 c31 -39 29 -117 -4 -149 -62 -63 -151 9 -130 105 15 69 94
95 134 44z"/>
<path d="M2691 999 c-53 -16 -78 -37 -101 -83 -27 -56 -26 -122 3 -176 29 -55
77 -81 151 -82 103 -1 161 63 161 177 0 99 -49 158 -141 169 -22 3 -54 0 -73
-5z m104 -85 c20 -21 25 -38 25 -76 0 -106 -72 -154 -133 -90 -22 22 -27 38
-27 76 0 48 20 100 42 109 33 14 70 6 93 -19z"/>
<path d="M3295 1001 c-78 -20 -118 -78 -118 -172 0 -100 52 -159 148 -167 69
-6 121 15 153 62 12 18 22 35 22 39 0 16 -84 6 -104 -12 -12 -11 -33 -23 -48
-26 -22 -6 -33 -1 -58 24 -18 17 -30 39 -28 48 3 16 15 18 98 15 129 -4 140
-1 140 47 0 95 -105 168 -205 142z m96 -80 c16 -16 29 -34 29 -40 0 -14 -146
-15 -155 -1 -9 15 50 70 75 70 12 0 35 -13 51 -29z"/>
<path d="M3624 1000 c-44 -14 -66 -43 -68 -90 -1 -52 24 -77 100 -96 32 -9 67
-20 76 -25 22 -12 24 -55 2 -63 -42 -16 -104 2 -104 29 0 11 -12 15 -45 15
-50 0 -51 0 -31 -38 27 -52 51 -65 128 -69 61 -4 78 -1 106 16 58 37 66 111
15 151 -14 11 -57 29 -95 41 -65 19 -69 22 -66 47 3 23 8 27 40 30 30 3 40 -1
54 -22 13 -21 25 -26 55 -26 22 0 39 5 39 11 0 22 -34 68 -59 79 -35 16 -110
21 -147 10z"/>
<path d="M1533 993 c-10 -3 -13 -47 -13 -169 l0 -165 43 3 42 3 0 107 c0 96 2
110 21 129 13 13 35 21 58 22 35 1 36 2 36 39 0 37 -1 38 -35 38 -22 0 -41 -7
-53 -20 l-19 -21 -6 21 c-5 20 -42 26 -74 13z"/>
<path d="M1817 985 c-109 -57 -113 -250 -7 -307 48 -25 138 -24 184 3 72 42
99 166 53 242 -35 57 -71 77 -142 77 -33 0 -73 -7 -88 -15z m138 -70 c21 -20
25 -34 25 -80 0 -49 -4 -60 -29 -86 -16 -16 -39 -29 -51 -29 -12 0 -35 13 -51
29 -24 25 -29 38 -29 79 0 95 78 145 135 87z"/>
<path d="M4348 878 c-10 -12 -18 -25 -18 -29 0 -5 -16 -36 -36 -69 -20 -34
-33 -64 -30 -67 3 -4 6 -1 6 6 0 7 5 9 10 6 6 -3 10 0 10 7 0 7 6 4 12 -7 14
-25 31 -36 40 -27 8 8 58 138 58 152 0 5 -7 6 -17 3 -11 -4 -14 -3 -9 5 4 7 3
12 -3 12 -6 0 -8 7 -5 15 8 21 2 19 -18 -7z"/>
<path d="M4395 891 c-3 -5 -1 -12 5 -16 5 -3 10 1 10 9 0 18 -6 21 -15 7z"/>
<path d="M4232 680 c-7 -11 -8 -20 -3 -20 9 0 24 30 18 36 -1 2 -8 -6 -15 -16z"/>
<path d="M4205 480 c-4 -6 -11 -8 -16 -5 -5 3 -6 -1 -3 -10 4 -9 7 -15 8 -13
1 2 8 11 15 21 7 9 11 17 8 17 -3 0 -9 -5 -12 -10z"/>
<path d="M4147 423 c-10 -9 -9 -23 2 -23 5 0 11 7 15 15 5 15 -5 20 -17 8z"/>
<path d="M4110 375 c-7 -8 -8 -15 -2 -15 5 0 15 7 22 15 7 8 8 15 2 15 -5 0
-15 -7 -22 -15z"/>
<path d="M3756 243 c-6 -14 -5 -15 5 -6 7 7 10 15 7 18 -3 3 -9 -2 -12 -12z"/>
<path d="M3760 190 c21 -21 19 -40 -3 -40 -7 0 -6 4 3 10 18 12 17 12 -38 14
-23 1 -37 -1 -31 -5 8 -5 8 -8 0 -14 -9 -5 -9 -10 0 -21 9 -11 8 -14 -6 -14
-10 0 -15 -3 -12 -6 8 -8 118 31 158 55 36 22 25 47 -14 32 -15 -6 -27 -13
-27 -17 0 -3 7 -4 14 -1 11 4 13 1 9 -10 -5 -13 -10 -12 -28 10 -11 15 -26 27
-33 27 -7 0 -3 -9 8 -20z"/>
<path d="M1454 152 c4 -3 14 -7 22 -8 9 -1 13 0 10 4 -4 3 -14 7 -22 8 -9 1
-13 0 -10 -4z"/>
<path d="M916 105 c-20 -15 -20 -15 0 -15 10 0 30 -3 44 -6 20 -4 22 -3 10 5
-11 8 -12 11 -2 11 7 0 10 5 7 10 -9 14 -37 12 -59 -5z"/>
<path d="M990 80 c0 -5 21 -9 48 -9 42 1 44 2 17 9 -44 11 -65 11 -65 0z"/>
<path d="M3538 83 c7 -3 16 -2 19 1 4 3 -2 6 -13 5 -11 0 -14 -3 -6 -6z"/>
<path d="M1123 68 c-2 -5 400 -7 894 -7 494 1 887 4 873 6 -51 7 -1762 8
-1767 1z"/>
<path d="M3438 73 c12 -2 30 -2 40 0 9 3 -1 5 -23 4 -22 0 -30 -2 -17 -4z"/>
<path d="M2948 63 c7 -3 16 -2 19 1 4 3 -2 6 -13 5 -11 0 -14 -3 -6 -6z"/>
</g>
</svg>
